Coordinates
version=1
nRows=7
nColumns=40
inDegrees=yes
endheader
time	/jointset/ground_pelvis/pelvis_tilt/value	/jointset/ground_pelvis/pelvis_list/value	/jointset/ground_pelvis/pelvis_rotation/value	/jointset/ground_pelvis/pelvis_tx/value	/jointset/ground_pelvis/pelvis_ty/value	/jointset/ground_pelvis/pelvis_tz/value	/jointset/hip_r/hip_flexion_r/value	/jointset/hip_r/hip_adduction_r/value	/jointset/hip_r/hip_rotation_r/value	/jointset/walker_knee_r/knee_angle_r/value	/jointset/patellofemoral_r/knee_angle_r_beta/value	/jointset/ankle_r/ankle_angle_r/value	/jointset/subtalar_r/subtalar_angle_r/value	/jointset/mtp_r/mtp_angle_r/value	/jointset/hip_l/hip_flexion_l/value	/jointset/hip_l/hip_adduction_l/value	/jointset/hip_l/hip_rotation_l/value	/jointset/walker_knee_l/knee_angle_l/value	/jointset/patellofemoral_l/knee_angle_l_beta/value	/jointset/ankle_l/ankle_angle_l/value	/jointset/subtalar_l/subtalar_angle_l/value	/jointset/mtp_l/mtp_angle_l/value	/jointset/back/lumbar_extension/value	/jointset/back/lumbar_bending/value	/jointset/back/lumbar_rotation/value	/jointset/acromial_r/arm_flex_r/value	/jointset/acromial_r/arm_add_r/value	/jointset/acromial_r/arm_rot_r/value	/jointset/elbow_r/elbow_flex_r/value	/jointset/radioulnar_r/pro_sup_r/value	/jointset/radius_hand_r/wrist_flex_r/value	/jointset/radius_hand_r/wrist_dev_r/value	/jointset/acromial_l/arm_flex_l/value	/jointset/acromial_l/arm_add_l/value	/jointset/acromial_l/arm_rot_l/value	/jointset/elbow_l/elbow_flex_l/value	/jointset/radioulnar_l/pro_sup_l/value	/jointset/radius_hand_l/wrist_flex_l/value	/jointset/radius_hand_l/wrist_dev_l/value
      4.26666667	      7.05028564	     -0.22715679	     -2.98170880	      0.96603094	      1.10868420	     -0.45431700	     -7.26185980	      1.15298879	     -1.49334667	     15.75099273	      0.27490668	     11.76965615	      0.00000000	      0.00000000	     18.79977472	     -4.13168022	     -2.36092134	     51.33640979	      0.89598938	      3.60857894	      0.00000000	      0.00000000	    -24.59211803	     -1.09253808	      1.44325950	     -2.10603389	    -17.15900965	     -9.22853781	     64.80368389	     55.00216090	      0.00000000	      0.00000000	     -1.16216290	    -11.65875728	      7.35344278	     30.77887915	     57.99058919	      0.00000000	      0.00000000
      4.27500000	      7.33562547	     -0.41009170	     -3.09521424	      0.96503065	      1.10885455	     -0.45401733	     -8.77210050	      1.32936160	     -1.43460566	     14.62801977	      0.25530711	     11.40684942	      0.00000000	      0.00000000	     18.90784656	     -4.49841657	     -3.03315531	     48.74932339	      0.85083620	      3.76093561	      0.00000000	      0.00000000	    -25.01085397	     -1.05871394	      1.82597345	     -1.93406322	    -17.21453411	     -9.48798774	     66.19150870	     54.91218279	      0.00000000	      0.00000000	     -1.48872339	    -11.66059343	      7.50231482	     30.60367259	     57.68521013	      0.00000000	      0.00000000
      4.28333333	      7.14270087	     -0.50706698	     -3.13337606	      0.96423650	      1.10790426	     -0.45400654	     -9.68515247	      1.43626784	     -1.37716452	     13.75991334	      0.24015579	     11.45587207	      0.00000000	      0.00000000	     19.54429224	     -4.70705123	     -3.51606561	     46.20593257	      0.80644566	      3.93037423	      0.00000000	      0.00000000	    -24.81559051	     -1.04816905	      2.06036786	     -1.87700198	    -17.32809881	     -9.37832572	     67.55732535	     54.86663997	      0.00000000	      0.00000000	     -1.89647484	    -11.61725695	      7.53147145	     30.34928520	     57.46955818	      0.00000000	      0.00000000
      4.29166667	      7.32069681	     -0.63100994	     -3.20263707	      0.96342283	      1.10735640	     -0.45401218	    -11.07922976	      1.54754351	     -1.32175022	     12.67251485	      0.22117711	     11.18242493	      0.00000000	      0.00000000	     19.66372956	     -4.93315392	     -4.15201692	     43.47975049	      0.75886480	      4.01612515	      0.00000000	      0.00000000	    -25.08069574	     -1.02876831	      2.39808237	     -1.79616372	    -17.39900048	     -9.55534130	     68.89597582	     54.73997093	      0.00000000	      0.00000000	     -2.19754154	    -11.60116196	      7.70815431	     30.13560403	     57.16998799	      0.00000000	      0.00000000
      4.30000000	      7.27790926	     -0.70389699	     -3.22510173	      0.96263629	      1.10616853	     -0.45419763	    -12.16391280	      1.61267823	     -1.27763664	     11.77064629	      0.20543653	     11.15931851	      0.00000000	      0.00000000	     20.01885142	     -5.03572279	     -4.61618141	     40.76127886	      0.71141852	      4.06996230	      0.00000000	      0.00000000	    -25.07763096	     -1.02003816	      2.62911134	     -1.73114774	    -17.49876019	     -9.57007395	     70.18477014	     54.63871002	      0.00000000	      0.00000000	     -2.52263605	    -11.57611124	      7.77584820	     29.86280354	     56.93610345	      0.00000000	      0.00000000
      4.30833333	      7.14529001	     -0.75524972	     -3.21244369	      0.96181879	      1.10459533	     -0.45451633	    -13.09594752	      1.65616604	     -1.24364726	     11.00650648	      0.19209978	     11.28073799	      0.00000000	      0.00000000	     20.46039229	     -5.05217318	     -4.92274412	     38.04666385	      0.66403955	      4.08411586	      0.00000000	      0.00000000	    -24.97968859	     -0.99428380	      2.76107673	     -1.63523652	    -17.59814146	     -9.51642019	     71.44768268	     54.56528909	      0.00000000	      0.00000000	     -2.86804695	    -11.55326517	      7.79323749	     29.57886708	     56.77462921	      0.00000000	      0.00000000
      4.31666667	      6.92195673	     -0.86281081	     -3.18462035	      0.96095491	      1.10266279	     -0.45496974	    -13.85157134	      1.75853004	     -1.24174834	     10.43462325	      0.18211853	     11.51251478	      0.00000000	      0.00000000	     20.96396557	     -5.05588400	     -4.98706704	     35.31492567	      0.61636173	      4.13417390	      0.00000000	      0.00000000	    -24.77725648	     -0.90165243	      2.97853711	     -1.58219357	    -17.78341769	     -9.37759987	     72.55257928	     54.52168991	      0.00000000	      0.00000000	     -3.18692747	    -11.49435808	      7.79882048	     29.39647519	     56.66767783	      0.00000000	      0.00000000
